# xmcd
#
# Track frame offsets: 
#        225
#        14957
#        31621
#        53526
#        71333
#        86943
#        111308
#        144472
#        167489
#        185827
#
# Disc length: 2737 seconds
#
# Revision: 0
# Processed by: cddbd v1.5.2PL0 Copyright (c) Steve Scherf et al.
# Submitted via: ExactAudioCopyFreeDBPlugin 1.0
#
DISCID=880aae0a
DTITLE=K.C. Williams - City Boy
DYEAR=1900
DGENRE=Country
TTITLE0=Hangin' With The Big Dawgs
TTITLE1=Sophisticated Country Girl
TTITLE2=City Boy
TTITLE3=I May Be A Yankee
TTITLE4=Take The Long Way Home
TTITLE5=A Little Whiskey In A Glass
TTITLE6=Cryin' Over You
TTITLE7=You Made Me
TTITLE8=Without You
TTITLE9=Some Days Are Better Than Others
EXTD=
EXTT0=
EXTT1=
EXTT2=
EXTT3=
EXTT4=
EXTT5=
EXTT6=
EXTT7=
EXTT8=
EXTT9=
PLAYORDER=
